<svg width="194" height="169" viewBox="0 0 194 169" fill="none" xmlns="http://www.w3.org/2000/svg">
<path d="M147.5 77.0468C147.5 110.184 108.66 168.047 70 168.047C31.3401 168.047 0 141.184 0 108.047C0 74.9098 42.8401 66.5469 81.5 66.5469C120.16 66.5469 147.5 43.9097 147.5 77.0468Z" fill="#4749D4"/>
<path opacity="0.5" d="M66.0782 136.331C76.1136 139.983 98.0779 107.693 101.73 97.6572C105.383 87.6218 102.097 84.3899 92.0621 80.7373C82.0267 77.0847 75.7736 87.6217 72.121 97.6571C68.4684 107.693 56.0428 132.678 66.0782 136.331Z" fill="#4A83DE"/>
<path d="M63.4844 125.385C71.117 128.163 102.841 114.019 96.798 106.768C88.3381 100.725 76.0297 107.733 68.3971 104.955C60.7646 102.177 56.2367 102.297 53.8984 108.722C51.5601 115.146 55.8519 122.606 63.4844 125.385Z" fill="#4A83DE"/>
<path d="M42.5116 133.309C50.2168 138.596 79.8948 143.467 92.2165 125.509C104.538 107.55 96.8965 106.117 107.773 80.7373C84.811 86.7801 75.7469 83.2752 75.7469 110.347C63.4252 128.305 34.8064 128.022 42.5116 133.309Z" fill="#1692FF"/>
<path opacity="0.9" d="M62.9325 133.341C68.5669 135.258 69.125 134.098 81.8068 134.059C94.4885 134.02 95.9042 117.859 95.8757 108.515C95.8472 99.1702 59.2242 102.554 46.5424 102.592C33.8607 102.631 60.3641 125.079 62.9325 133.341Z" fill="#1142BF"/>
<path d="M78.7682 129.079C83.4405 137.172 104.752 116.389 99.3136 105.512C110.296 99.1715 83.4404 113.605 78.7682 105.513C74.0959 97.4199 54.9823 93.9901 46.0236 84.3217C30.207 99.4285 74.096 120.987 78.7682 129.079Z" fill="#4A83DE"/>
<path opacity="0.4" d="M47.3458 117.598C52.018 125.691 74.9817 134.512 85.9644 128.171C96.9472 121.831 102.063 110.13 97.3907 102.037C92.7184 93.9448 83.7082 111.257 72.7254 117.598C61.7426 123.939 42.6735 109.506 47.3458 117.598Z" fill="#6D5ADF"/>
<path d="M121.676 39.8264C121.405 32.0813 131.204 28.515 135.975 34.6219L137.143 36.1172C139.277 38.8483 142.927 39.8949 146.184 38.7095L147.967 38.0605C155.249 35.4099 161.669 43.6267 157.335 50.0515L156.274 51.6247C154.336 54.498 154.469 58.2925 156.602 61.0236L157.771 62.5189C162.542 68.6258 156.711 77.2704 149.262 75.1343L147.437 74.6112C144.106 73.6559 140.538 74.9545 138.6 77.8278L137.539 79.401C133.205 85.8258 123.182 82.9517 122.911 75.2066L122.845 73.3102C122.724 69.8465 120.387 66.8546 117.055 65.8993L115.231 65.3762C107.782 63.2401 107.418 52.8192 114.7 50.1686L116.483 49.5196C119.74 48.3342 121.863 45.1865 121.742 41.7228L121.676 39.8264Z" fill="#F5B940"/>
</svg>
